<?xml version="1.0" encoding="UTF-8" standalone="no"?>
<!-- Generator: Adobe Illustrator 25.4.1, SVG Export Plug-In . SVG Version: 6.00 Build 0)  -->

<svg
   version="1.1"
   id="Layer_1"
   x="0px"
   y="0px"
   viewBox="0 0 2000 440"
   style="enable-background:new 0 0 2000 440;"
   xml:space="preserve"
   sodipodi:docname="Glas-pro-block-01-dark.svg"
   inkscape:version="1.4.2 (ebf0e940, 2025-05-08)"
   xmlns:inkscape="http://www.inkscape.org/namespaces/inkscape"
   xmlns:sodipodi="http://sodipodi.sourceforge.net/DTD/sodipodi-0.dtd"
   xmlns="http://www.w3.org/2000/svg"
   xmlns:svg="http://www.w3.org/2000/svg"><defs
   id="defs10" /><sodipodi:namedview
   id="namedview10"
   pagecolor="#ffffff"
   bordercolor="#000000"
   borderopacity="0.25"
   inkscape:showpageshadow="2"
   inkscape:pageopacity="0.0"
   inkscape:pagecheckerboard="0"
   inkscape:deskcolor="#d1d1d1"
   inkscape:zoom="0.416"
   inkscape:cx="1032.4519"
   inkscape:cy="105.76923"
   inkscape:window-width="1640"
   inkscape:window-height="1043"
   inkscape:window-x="276"
   inkscape:window-y="29"
   inkscape:window-maximized="0"
   inkscape:current-layer="g10" />
<style
   type="text/css"
   id="style1">
	.st0{fill:#FFFFFF;}
	.st1{fill:#FFB41D;}
	.st2{fill:#EBE8DF;}
	.st3{fill:#363636;}
</style>
<g
   id="g10">
	<g
   id="g5"
   style="fill:#ffffff;fill-opacity:1">
		<path
   class="st3"
   d="M1009.58,149.45c-17.29-16.12-40.75-26.05-66.55-26.05c-53.03,0-96.18,41.92-96.18,93.45    c0,51.53,43.14,93.45,96.18,93.45c25.8,0,49.26-9.92,66.55-26.05v22.16h29.69V127.07h-29.69V149.45z M943.03,281.07    c-35.41,0-64.22-28.81-64.22-64.22c0-35.41,28.81-64.22,64.22-64.22c35.41,0,64.22,28.81,64.22,64.22    C1007.25,252.26,978.44,281.07,943.03,281.07z"
   id="path1"
   style="fill:#ffffff;fill-opacity:1" />
		<polygon
   class="st3"
   points="649.38,127.03 507.24,127.03 507.24,306.52 539.46,306.52 539.46,157.5 649.38,157.5   "
   id="polygon1"
   style="fill:#ffffff;fill-opacity:1" />
		<polygon
   class="st3"
   points="1336.21,306.52 1368.43,306.52 1368.43,157.5 1475.57,157.5 1475.57,306.52 1507.79,306.52     1507.79,127.03 1336.21,127.03   "
   id="polygon2"
   style="fill:#ffffff;fill-opacity:1" />
		<polygon
   class="st3"
   points="701.23,127.03 631.04,306.52 666.94,306.52 735.13,132.13 803.32,306.52 839.22,306.52     769.04,127.03   "
   id="polygon3"
   style="fill:#ffffff;fill-opacity:1" />
		<path
   class="st3"
   d="M1863.82,122.95c-53.03,0-96.18,41.92-96.18,93.45c0,51.53,43.14,93.45,96.18,93.45    c53.03,0,96.18-41.92,96.18-93.45C1960,164.87,1916.85,122.95,1863.82,122.95z M1863.82,280.62c-35.41,0-64.22-28.81-64.22-64.22    c0-35.41,28.81-64.22,64.22-64.22c35.41,0,64.22,28.81,64.22,64.22C1928.04,251.81,1899.23,280.62,1863.82,280.62z"
   id="path3"
   style="fill:#ffffff;fill-opacity:1" />
		<path
   class="st3"
   d="M1164.71,152.96c29.03,0,53.6,19.36,61.53,45.84h32.78c-8.81-42.75-47.75-75.07-94.31-75.07    c-53.03,0-96.18,41.92-96.18,93.45s43.14,93.45,96.18,93.45c46.56,0,85.49-32.31,94.31-75.07h-32.78    c-7.93,26.48-32.5,45.84-61.53,45.84c-35.41,0-64.22-28.81-64.22-64.22C1100.49,181.77,1129.3,152.96,1164.71,152.96z"
   id="path4"
   style="fill:#ffffff;fill-opacity:1" />
		<path
   class="st3"
   d="M1645.14,123.25c-24.77,0-47.38,9.15-64.45,24.14v-20.33h-32.22v247.12h32.22V286    c17.07,15,39.68,24.14,64.45,24.14c53.03,0,96.18-41.92,96.18-93.45C1741.32,165.17,1698.17,123.25,1645.14,123.25z     M1645.14,280.92c-35.41,0-64.22-28.81-64.22-64.22c0-35.41,28.81-64.22,64.22-64.22c35.41,0,64.22,28.81,64.22,64.22    C1709.36,252.11,1680.55,280.92,1645.14,280.92z"
   id="path5"
   style="fill:#ffffff;fill-opacity:1" />
	</g>
	<g
   id="g9">
		<path
   class="st1"
   d="M324.05,104.53c-1.32-1.67-3.48-2.29-5.5-1.59c-2.04,0.71-3.35,2.55-3.35,4.7v223.03c0,2.15,1.32,4,3.35,4.7    c0.55,0.19,1.11,0.28,1.66,0.28c1.47,0,2.87-0.66,3.83-1.88c26.04-32.93,39.81-72.56,39.81-114.63S350.1,137.45,324.05,104.53z"
   id="path6" />
		<path
   class="st1"
   d="M394.74,147.39c-1.09-2.55-3.57-3.29-5.53-2.89c-1.99,0.41-3.99,2.07-3.99,4.87v141.25    c0,2.8,2,4.47,3.99,4.88c0.33,0.07,0.68,0.1,1.03,0.1c1.73,0,3.6-0.87,4.51-2.99c9.83-22.99,14.81-47.42,14.81-72.61    C409.55,194.81,404.57,170.38,394.74,147.39z"
   id="path7" />
		<path
   class="st1"
   d="M174.44,91.38c-33.49-34.59-78.38-54.55-126.4-56.2c-2.13-0.08-4.12,0.7-5.65,2.18    C40.85,38.85,40,40.85,40,42.99v354.01c0,2.14,0.85,4.14,2.39,5.63c1.46,1.41,3.36,2.18,5.38,2.18c0.09,0,0.18,0,0.27,0    c48.02-1.65,92.91-21.61,126.4-56.2c33.56-34.67,52.05-80.35,52.05-128.62S208.01,126.06,174.44,91.38z"
   id="path8" />
		<path
   class="st1"
   d="M232.76,64.5c-1.53-1-3.42-1.08-5.04-0.2c-1.64,0.89-2.62,2.53-2.62,4.39v301.24c0,1.86,0.98,3.5,2.62,4.39    c0.75,0.4,1.55,0.61,2.36,0.61c0.93,0,1.85-0.27,2.68-0.81c52.43-34.34,83.74-92.21,83.74-154.8    C316.5,156.71,285.2,98.84,232.76,64.5z"
   id="path9" />
	</g>
</g>
</svg>
