<?xml version="1.0" encoding="utf-8"?>
<!-- Generator: Adobe Illustrator 25.4.1, SVG Export Plug-In . SVG Version: 6.00 Build 0)  -->
<svg version="1.1" id="Layer_1" xmlns="http://www.w3.org/2000/svg" xmlns:xlink="http://www.w3.org/1999/xlink" x="0px" y="0px"
	 viewBox="0 0 1080 1080" style="enable-background:new 0 0 1080 1080;" xml:space="preserve">
<style type="text/css">
	.st0{fill:#FFFFFF;}
	.st1{fill:#FFB41D;}
	.st2{fill:#EBE8DF;}
	.st3{fill:#363636;}
</style>
<polygon class="st3" points="1080,1080 0,1080 0,1080 0,0 1080,0 1080,1080 "/>
<g>
	<path class="st1" d="M716.3,334.93c-2.34-2.96-6.18-4.07-9.76-2.83c-3.62,1.26-5.96,4.54-5.96,8.35v396.08
		c0,3.82,2.34,7.09,5.96,8.35c0.98,0.34,1.97,0.5,2.95,0.5c2.61,0,5.1-1.17,6.81-3.33C762.56,683.59,787,613.2,787,538.5
		S762.56,393.4,716.3,334.93z"/>
	<path class="st1" d="M841.84,411.05c-1.94-4.54-6.35-5.84-9.83-5.13c-3.53,0.72-7.09,3.68-7.09,8.66v250.84
		c0,4.98,3.56,7.94,7.09,8.66c0.59,0.12,1.2,0.18,1.83,0.18c3.08,0,6.39-1.54,8-5.31c17.45-40.82,26.3-84.21,26.3-128.95
		C868.14,495.26,859.29,451.88,841.84,411.05z"/>
	<path class="st1" d="M450.62,311.59c-59.47-61.43-139.19-96.87-224.47-99.81c-3.78-0.15-7.32,1.24-10.03,3.87
		c-2.74,2.65-4.25,6.2-4.25,10.01v628.69c0,3.81,1.51,7.36,4.25,10c2.6,2.51,5.97,3.88,9.55,3.88c0.16,0,0.32,0,0.48-0.01
		c85.29-2.94,165.01-38.38,224.47-99.81c59.61-61.57,92.44-142.69,92.44-228.41S510.22,373.16,450.62,311.59z"/>
	<path class="st1" d="M554.19,263.84c-2.73-1.78-6.07-1.92-8.94-0.36c-2.91,1.57-4.65,4.49-4.65,7.79v534.97
		c0,3.3,1.74,6.21,4.65,7.79c1.33,0.72,2.76,1.08,4.18,1.08c1.65,0,3.29-0.48,4.76-1.44C647.31,752.67,702.9,649.9,702.9,538.75
		C702.9,427.6,647.31,324.83,554.19,263.84z"/>
</g>
</svg>
